<svg xmlns="http://www.w3.org/2000/svg" viewBox="0 0 11.48 14.91"><defs><style>.cls-1{fill:#2940d3;}</style></defs><g id="Capa_2" data-name="Capa 2"><g id="Capa_1-2" data-name="Capa 1"><path class="cls-1" d="M6.21,13.52a2.45,2.45,0,0,0,1,1,3.31,3.31,0,0,0,1.57.35,3,3,0,0,0,1.52-.36,2.4,2.4,0,0,0,1-1.09,6.36,6.36,0,0,0,.22-2V8.33H9.89a2.83,2.83,0,0,0-.18-.87A1.08,1.08,0,0,0,9.34,7a.89.89,0,0,0-.56-.17,1.17,1.17,0,0,0-.61.15,1,1,0,0,0-.38.44,1.54,1.54,0,0,0-.14.7v3.4H9.83a4.74,4.74,0,0,1-.11,1,1.27,1.27,0,0,1-.37.51,1,1,0,0,1-.57.16A1.17,1.17,0,0,1,8.17,13a1,1,0,0,1-.38-.43,1.51,1.51,0,0,1-.14-.7v-.4H5.87v.4A3.58,3.58,0,0,0,6.21,13.52Z"/><path class="cls-1" d="M6.21,6.43a2.37,2.37,0,0,1,1-1A3.2,3.2,0,0,1,8.78,5a3,3,0,0,1,1.52.36,2.29,2.29,0,0,1,1,1.09,3,3,0,0,1,.22.58V0H0V11.48H5.87V8.08A3.65,3.65,0,0,1,6.21,6.43ZM2.72,2.11h-.8v.51H2.6V3H1.92v.5h.8v.36H1.55V1.74H2.72ZM4.33,3.84H3.94l-.6-1.37V3.84H3V1.74h.38L4,3.16V1.74h.36Z"/></g></g></svg>