<svg xmlns="http://www.w3.org/2000/svg" viewBox="0 0 140.06 40.89"><defs><style>.cls-1{fill:blue;}</style></defs><g id="Capa_2" data-name="Capa 2"><g id="Capa_1-2" data-name="Capa 1"><path class="cls-1" d="M38.11,11.91a7.51,7.51,0,0,0-3.51-.78,7.51,7.51,0,0,0-3.51.78,5.46,5.46,0,0,0-2.31,2.23A6.93,6.93,0,0,0,28,17.57V26.5a6.91,6.91,0,0,0,.81,3.41,5.45,5.45,0,0,0,2.31,2.25,8.39,8.39,0,0,0,7,0,5.45,5.45,0,0,0,2.31-2.25,7,7,0,0,0,.8-3.41V17.57a7,7,0,0,0-.8-3.43A5.46,5.46,0,0,0,38.11,11.91ZM37.3,26.29a3.32,3.32,0,0,1-.32,1.5,2.26,2.26,0,0,1-.94,1,2.89,2.89,0,0,1-1.44.34,2.83,2.83,0,0,1-1.43-.34,2.26,2.26,0,0,1-.94-1,3.19,3.19,0,0,1-.34-1.5V17.76a3.18,3.18,0,0,1,.34-1.49,2.31,2.31,0,0,1,.94-1A2.83,2.83,0,0,1,34.6,15,2.9,2.9,0,0,1,36,15.3a2.31,2.31,0,0,1,.94,1,3.31,3.31,0,0,1,.32,1.49Z"/><polygon class="cls-1" points="54.37 25.75 48.26 11.35 44.38 11.35 44.38 32.7 47.95 32.7 47.95 18.74 54.04 32.7 57.96 32.7 57.96 11.35 54.37 11.35 54.37 25.75"/><polygon class="cls-1" points="60.6 15.04 65.26 15.04 65.26 32.71 69.1 32.71 69.1 15.04 73.77 15.04 73.77 11.35 60.6 11.35 60.6 15.04"/><polygon class="cls-1" points="77.35 11.35 75.83 11.35 75.83 32.71 77.35 32.71 79.64 32.71 87.71 32.71 87.71 29 79.64 29 79.64 23.94 86.54 23.94 86.54 20.25 79.64 20.25 79.64 15.07 87.71 15.07 87.71 11.35 79.64 11.35 77.35 11.35"/><polygon class="cls-1" points="102.84 11.35 98.73 11.35 95.86 17.99 92.87 11.35 88.77 11.35 94.01 21.94 88.59 32.71 92.69 32.71 95.82 25.73 96.86 23.38 97.65 21.81 102.84 11.35"/><polygon class="cls-1" points="96.98 28.23 99.05 32.71 103.17 32.71 98.73 23.94 96.98 28.23"/><polygon class="cls-1" points="117.07 11.35 103.9 11.35 103.9 15.04 108.56 15.04 108.56 32.71 112.39 32.71 112.39 15.04 117.07 15.04 117.07 11.35"/><path class="cls-1" d="M121.43,32.16c1,.51.81.89,10.14.89V17.57a6.93,6.93,0,0,0-.81-3.43,5.46,5.46,0,0,0-2.31-2.23,8.29,8.29,0,0,0-7,0,5.46,5.46,0,0,0-2.31,2.23,6.93,6.93,0,0,0-.8,3.43V26.5a6.9,6.9,0,0,0,.8,3.41A5.45,5.45,0,0,0,121.43,32.16Zm.81-14.4a3.18,3.18,0,0,1,.33-1.49,2.31,2.31,0,0,1,.94-1,2.86,2.86,0,0,1,1.43-.35,2.9,2.9,0,0,1,1.44.35,2.26,2.26,0,0,1,.94,1,3.18,3.18,0,0,1,.32,1.49v8.53a3.19,3.19,0,0,1-.32,1.5,2.2,2.2,0,0,1-.94,1,2.89,2.89,0,0,1-1.44.34,2.85,2.85,0,0,1-1.43-.34,2.26,2.26,0,0,1-.94-1,3.19,3.19,0,0,1-.33-1.5Z"/><path class="cls-1" d="M13.72,29.86a5.29,5.29,0,0,0,2.2,2.29,7.2,7.2,0,0,0,3.47.78,6.58,6.58,0,0,0,3.36-.79,5.3,5.3,0,0,0,2.11-2.4c.51-1.07.38-2.75.49-4.39v-7h-3.5a6.61,6.61,0,0,0-.39-1.91,2.5,2.5,0,0,0-.83-1.13A2.11,2.11,0,0,0,19.39,15a2.52,2.52,0,0,0-1.34.34,2.13,2.13,0,0,0-.85,1,3.5,3.5,0,0,0-.31,1.54v7.51h4.66a8.65,8.65,0,0,1-.09,2.23,2.45,2.45,0,0,1-.82,1.12,2.06,2.06,0,0,1-1.25.37,2.61,2.61,0,0,1-1.34-.33,2.16,2.16,0,0,1-.85-1,3.45,3.45,0,0,1-.31-1.55v-.88H13v.88A7.91,7.91,0,0,0,13.72,29.86Z"/><path class="cls-1" d="M13.72,14.21a5.19,5.19,0,0,1,2.2-2.29,7.09,7.09,0,0,1,3.47-.79,6.72,6.72,0,0,1,3.37.79,5.29,5.29,0,0,1,2.12,2.41,8.19,8.19,0,0,1,.47,1.27V0H0V25.35H13V17.84A7.91,7.91,0,0,1,13.72,14.21ZM6,4.65H4.25V5.78H5.74v.8H4.25v1.1H6v.8H3.42V3.84H6ZM9.56,8.48H8.7l-1.32-3v3H6.61V3.84h.84L8.78,7V3.84h.78Z"/><polygon class="cls-1" points="136.46 21.46 136.46 37.28 114.72 37.28 114.72 40.88 140.06 40.88 140.06 40.6 140.06 37.28 140.06 21.47 136.46 21.46"/></g></g></svg>